<svg version="1" xmlns="http://www.w3.org/2000/svg" width="3072" height="3072" viewBox="0 0 2304.000000 2304.000000"><path d="M1143.5 384.7c-1.1.3-14.8 4.5-30.5 9.5-15.7 4.9-28.9 9.1-29.5 9.2-.5.1-5.3 1.6-10.5 3.3-5.2 1.7-11.5 3.7-14 4.4-5.4 1.5-5.1 1.4-7 2.2-.8.3-4.4 1.5-8 2.6-15.7 4.8-71.4 22.3-88 27.6-5.8 1.8-17.2 5.4-25.5 8-8.2 2.6-23.3 7.3-33.5 10.5s-25.9 8.1-35 11c-23 7.2-32.6 10.2-47 14.8-6.9 2.2-17.2 5.4-23 7.2-5.8 1.7-11.1 3.3-11.8 3.5-.7.3-1.4.5-1.7.5-.3 0-3.4 1.1-7 2.5-3.6 1.3-6.9 2.4-7.3 2.5-.8 0-12.8 3.6-18.7 5.6-5.1 1.7-21.8 6.9-41 12.9-8.2 2.5-16.1 5-17.5 5.5-3.4 1.2-32 10.2-33.4 10.5-.6.1-1.8.5-2.6.8-1.7.6-30.4 9.7-42 13.2-6.9 2.1-41.8 13.1-72 22.7-6.9 2.2-15.2 4.8-18.5 5.8-6.1 1.9-17.8 5.5-41 12.9-7.1 2.3-13.8 4.3-14.8 4.6-1 .2-6.7 2-12.5 3.9-5.9 1.9-18.1 5.7-27.2 8.6-9.1 2.8-20.5 6.4-25.5 8-21.6 6.9-39.1 12.4-40 12.6-.5.1-9.1 2.7-19 5.9-13.3 4.2-110.1 34.5-118 36.9-.5.2-1.3.4-1.7.5-.5.1-3.2 1-6 2-2.9 1.1-19.2 6.3-36.3 11.6-17 5.4-39.5 12.4-50 15.7-10.4 3.3-20.3 6.4-22 6.8-1.6.5-9.3 2.9-17 5.4-7.7 2.4-25.5 8-39.5 12.5-14 4.4-26.8 8.6-28.5 9.3-13.8 6.2-19.7 15.9-19 31.3.4 11.7 4.4 19.5 12.6 24.9 5 3.4 12.8 6 80.9 27.1 8.4 2.6 31.7 9.9 56.2 17.6 9 2.8 17.9 5.5 19.8 6 1.9.6 5.3 1.6 7.5 2.4 4.4 1.5 16 5.1 36.5 11.5 7.4 2.3 21.2 6.6 30.5 9.5 23.8 7.4 45.8 14.3 53.5 16.7 3.6 1.1 11.2 3.5 17 5.3 5.8 1.9 17.1 5.4 25.2 8l14.8 4.6-6.8 10.2c-25.6 38.2-47.4 86.2-61.7 135.8-4.4 15-11.1 42.2-12 48.1-.4 2.3-.8 4.5-1 4.8-.5.7-6.2 31.9-7 37.5-.2 2.2-.7 5.1-.9 6.5-.3 1.4-.7 4.5-1 7-.4 2.5-.8 5.6-1 7-.2 1.4-.7 5.6-1.1 9.5-.4 3.8-.8 7.7-1 8.5-.2.9-.6 4.9-1 9-.3 4.1-.8 9.1-1 11-.2 1.9-.6 7.5-1 12.5-.3 4.9-.8 11.9-1.1 15.5-.3 4.6-1 6.9-2.2 7.8-.9.7-5.6 4-10.3 7.3-12.5 8.7-24.9 21.1-33.5 33.5-4.2 5.9-12.3 24-14.4 31.9-6.7 25-6 56.6 1.6 79.9 4 12.4 11.9 27.1 19.4 36.1 4.8 5.9 17.6 17.9 24.8 23.3l7.3 5.5-.6 4.1c-.4 2.3-.8 5.2-1 6.6-.3 1.4-.7 5-1 8-.3 3-.7 6.6-1 8-.2 1.4-.7 4.5-1 7-.3 2.5-.8 5.6-1 7-.2 1.4-.7 4.4-1 6.7-.3 2.4-.7 6.2-1 8.5-.3 2.4-.8 5.4-1 6.8-.2 1.4-.7 5-1 8-.4 3-1 8.2-1.5 11.5-.5 3.3-1.2 8-1.5 10.5-1 7.5-1.3 10-2.9 22-.9 6.3-1.8 13.1-2 15-.2 1.9-.7 5.3-1 7.5-1.1 7.5-1.6 11-4.1 30.5-1.4 10.7-3.2 24.2-4 30-.9 5.8-1.7 12.1-2 14-.2 1.9-1.6 12.5-3 23.5s-2.8 21.3-3.1 23c-.3 1.6-.7 4.8-.9 7-.3 2.2-.7 5.1-.9 6.5-.3 1.4-.8 4.7-1.1 7.5-.3 2.7-.8 6.3-1 8-1.1 7.8-2.6 19.3-3 22.3-.3 1.8-.8 5.4-1.1 8-.3 2.6-.7 5.8-.9 7.2-.7 4.9-2.5 17.6-2.9 21-.2 1.9-1.2 9.1-2.1 16-.9 6.9-1.8 13.8-2 15.5-.9 6.6-1.8 13.1-2.1 14.9-.2 1-.6 4.4-1 7.5-.3 3.1-.8 6.3-.9 7.1-.2.9-.6 4.3-1 7.5-.4 3.3-.9 6.9-1.1 8-.3 1.1-.7 6-1 11-.5 7.7-.3 9.8 1.5 14.5 2.2 5.6 7.2 11.9 12.7 15.7 7.7 5.5 3.5 5.3 114.9 5l103-.2 4.8-2.4c6.9-3.4 14.1-11.3 16.8-18.3 2.3-6.2 2.3-12.8 0-29.4-.6-3.8-1.3-9.2-1.6-11.9-.4-2.8-.8-6.1-1-7.5-.2-1.4-.9-6.3-1.5-11s-1.7-13.2-2.6-19c-1.6-11.8-2.2-15.7-2.9-21.5-.5-3.9-2.4-18.9-3-23-.2-1.1-.6-4.3-.9-7-1-6.9-1.4-9.8-2.6-19-.6-4.4-1.3-9.4-1.5-11-.7-6-1.7-13.1-2.1-16-.3-1.7-.7-4.4-.9-6-.2-1.7-.7-5.3-1-8-.6-4.7-1.1-8.1-2-15-.3-1.7-.7-5.5-1-8.5-.3-3-.8-6.2-1-7-.2-.8-.7-3.8-1-6.5-.3-2.8-1-7.9-1.5-11.5-.5-3.6-1.4-10.3-2-15-.6-4.7-1.3-9.6-1.5-11-.5-3.4-1.2-8.5-3-22.4-.8-6.6-1.7-13.1-1.9-14.5-.3-1.4-.7-4.9-1-7.6-.4-2.8-.8-6.1-1.1-7.5-.2-1.4-.7-4.8-1-7.5-.3-2.8-.7-6.1-1-7.5-.2-1.4-.7-4.8-1-7.5-.4-2.8-.8-6.3-1-7.8-1.5-10.8-2.2-15.9-3-22.7-.4-2.5-.8-5.6-1-7-.2-1.4-.9-6.3-1.5-11-1.7-13.4-2.1-16.3-2.5-19-.2-1.4-.9-6.3-1.5-11s-1.3-10.3-1.6-12.5c-.3-2.2-.9-6.7-1.4-10-.6-3.3-1-6.3-1-6.7 0-.4 2.7-2.7 6-5.1 12.9-9.4 19-15.7 32.6-33.2 3.7-4.8 15.4-30.5 13.8-30.5-.2 0 0-.9.7-2.1.6-1.2 1.5-4.6 2-7.8.4-3.1 1.2-7.2 1.5-9.1 1.3-6.2.9-37.1-.5-44.5-1.3-7-1.6-8.2-4.7-18.5-4.3-14.4-14.8-31.4-26.9-43.6-6-6.1-20.5-17.4-26.4-20.6l-3.2-1.7.6-7.8c.6-8.6 1.4-17.9 2-23.3.2-1.9.7-6.4 1-10 .4-3.6.8-7.6 1-9 .8-5.6 2.5-17.8 3-22 .5-3.7 5.1-29 6.9-37.6.2-1.2 1.6-7.1 3.1-13 1.5-6 2.8-11.6 3-12.4 1.4-5.9 7.2-25 11.6-37.5 17.7-51.4 39.6-87.7 68-113.4l4.7-4.2 23.8 7.6c13.2 4.2 24.6 7.8 25.4 8 .8.2 20 6.3 42.5 13.4 22.6 7.2 41.8 13.3 42.7 13.5.9.3 10.4 3.2 21 6.6 10.6 3.4 22.9 7.3 27.3 8.6 4.4 1.4 12.1 3.8 17 5.4 8.5 2.8 78.4 24.9 98.3 31.1 5 1.6 13.5 4.2 18.7 5.9 5.2 1.6 13.8 4.3 19 6 18.4 5.8 29 9.2 34 10.8 2.8.8 5.2 1.6 5.5 1.7.7.1 24.7 7.7 39.5 12.5 6.6 2.1 18.8 5.9 27 8.5 8.3 2.6 19.7 6.2 25.5 8 5.8 1.9 20 6.3 31.5 10 11.6 3.6 29.6 9.3 40 12.6 10.5 3.3 21.9 6.9 25.5 8 3.6 1.1 7.4 2.4 8.5 2.9 2.3.9 30.6 9.8 35 11 1.7.4 12.5 3.9 24 7.6 20 6.5 21.5 6.9 30.5 6.9 9.2 0 10.4-.3 37-8.8 15.1-4.9 29.8-9.5 32.5-10.4 2.8-.8 10.4-3.3 17-5.3 6.6-2.1 18.8-5.9 27-8.5 8.3-2.6 19.1-6 24-7.6 5-1.6 14-4.4 20-6.3 6.1-1.9 16.2-5.1 22.5-7.1 6.3-2 12.2-3.8 13-4 .8-.2 3.5-1 6-1.8s13.1-4.2 23.5-7.5c18-5.7 31.2-9.9 68-21.4 19.9-6.2 28-8.7 42-13.2 6.1-1.9 18.2-5.7 27-8.5 8.8-2.7 26.8-8.4 40-12.6 13.2-4.2 25.4-8 27-8.5 1.7-.4 6.6-1.9 11-3.3 14.7-4.7 40.9-12.9 51.5-16.2 11.1-3.5 56.4-17.8 117.5-37 20.4-6.4 44.2-13.9 53-16.6 8.8-2.8 18.9-6 22.5-7.2 3.6-1.2 6.7-2.2 7-2.2.5-.1 1.1-.3 14.5-4.5 5-1.5 16.4-5.1 25.5-8 9.1-2.8 20.6-6.4 25.5-8 21.6-6.9 39.1-12.4 40-12.6.6-.1 9.1-2.7 19-5.9 13.3-4.2 110.1-34.5 118-36.9.6-.2 1.3-.4 1.7-.5.5-.1 3.2-1 6-2 2.9-1.1 19.3-6.3 36.3-11.6 17.1-5.4 39.6-12.4 50-15.7 10.5-3.3 20.4-6.4 22-6.8 1.7-.5 9.3-2.9 17-5.4 7.7-2.4 25.5-8 39.5-12.4 14-4.5 26.9-8.7 28.5-9.4 13.8-6.3 19.7-15.9 19-31.3-.7-18.5-7.3-24.9-34.5-33.5-9.1-2.9-19.6-6.2-23.5-7.5-3.8-1.2-13.5-4.3-21.5-6.8s-26.2-8.2-40.5-12.7-29.5-9.3-33.7-10.6c-22.7-7-40.2-12.5-79.3-24.9-11.5-3.7-24.4-7.7-28.5-9-4.1-1.2-11.1-3.4-15.5-4.8s-15.2-4.8-24-7.5c-19.8-6.3-48.3-15.2-72-22.6-9.9-3.2-21.4-6.8-25.5-8.1-4.1-1.2-15.6-4.9-25.4-8-9.9-3.2-18.4-5.8-19-5.9-1-.2-7.6-2.3-44.6-14.1-5.8-1.8-17.2-5.4-25.5-8-8.2-2.6-23.3-7.3-33.5-10.5s-25.7-8.1-34.5-10.9c-8.8-2.7-24.8-7.7-35.5-11.1-10.7-3.5-21.5-6.8-24-7.6-2.5-.7-14.6-4.5-27-8.4-12.4-3.9-25.9-8.2-30-9.5-26-8.1-41.8-13.1-59-18.5-32.4-10.2-57.1-18-65-20.5-4.1-1.2-11.1-3.4-15.5-4.8s-15.4-4.9-24.5-7.7-19.9-6.2-24-7.5c-4.1-1.3-13.6-4.2-21-6.5s-14.4-4.6-15.5-5c-1.1-.5-10.3-3.4-20.5-6.5s-19.6-6-21-6.5c-4.1-1.5-38.3-12.2-39.4-12.4-.6-.1-4.7-1.4-9.1-2.8-4.4-1.5-19.7-6.3-34-10.8-43.6-13.6-57.8-18.1-62-19.5-24-8.1-34.4-10.8-42-11-4.4-.1-8.9 0-10 .2z"/><path d="M529.9 1094.1c0 1.3-.2 4.4-.4 6.9-.1 2.5-.5 9.7-.9 16-.3 6.3-.8 14.6-1.1 18.5-.3 3.8-.7 11.7-1 17.5-1.2 21.7-1.5 26.7-2 35s-.9 15.3-2 35.5c-.3 5.5-.7 13.6-1 18-.5 8.9-1.3 23.3-2 34-.2 3.8-.7 12.2-1 18.5-.4 6.3-.8 14.2-1.1 17.5-.2 3.3-.6 10.9-.9 17-.3 6-.7 13.7-.9 17-.2 3.3-.7 11.6-1.1 18.5-.4 6.9-.8 14.3-1 16.5-.2 2.2-.6 13-.9 24-.6 27.5 1 36.4 10.9 57 23.9 49.7 91.4 97.4 189.7 133.8 16.3 6 42.9 14.8 59.8 19.6 4.1 1.2 8.9 2.6 10.5 3.1 11 3.3 56.8 14.2 73.8 17.6 1 .2 2.6.5 3.5.8.9.3 3.3.8 5.2 1.1 1.9.3 4.2.8 5 1 .8.2 3.5.7 6 1 2.5.4 6.8 1.1 9.5 1.6 2.8.6 5.9 1.2 7 1.4 3.5.7 25.9 4.4 29.5 4.8 1.9.3 6.4 1 10 1.5 3.6.6 9 1.4 12 1.8 3 .4 6.4.8 7.5.9 1.1.2 4.5.6 7.5.9 3 .4 8.9 1.1 13 1.6 4.1.6 9.8 1.2 12.5 1.5 2.8.2 7 .7 9.5.9 2.5.3 7.7.8 11.5 1.1 3.9.3 9 .7 11.5 1 2.5.3 8 .7 12.2 1 14 .9 24.2 1.5 30.8 2 37.2 2.6 144.5 2.6 181 0 3-.2 10-.6 15.5-1 15.1-.8 22.7-1.4 39-3 8.5-.8 16.8-1.6 22.2-2 2.9-.3 6.5-.7 8-.9 2.5-.4 5.4-.8 16.3-2 10.7-1.3 13.8-1.7 16.5-2.1 1.7-.3 4.8-.7 7-1 23.6-3.3 66.5-10.7 80.7-14 3.5-.7 7.4-1.6 8.8-1.9 5.2-.9 22-4.8 33.5-7.7 11.7-3 13.9-3.5 18-4.4 1.1-.3 6.7-1.9 12.5-3.5 5.8-1.7 11.2-3.3 12-3.5 16.4-3.9 64.1-20.5 89-31 53.6-22.6 100.1-51.7 129-80.6 21.3-21.4 34.2-43.1 40.2-67.9 1.9-8.1 1.6-37.9-.7-71.5-.5-6.6-1-15.3-2-34.5-.5-10.5-1.4-25.4-2-34-.2-3.6-.7-11.9-1-18.5-.4-6.6-.8-14.7-1-18-.2-3.3-.7-11-1-17-.3-6.1-.8-14.6-1-19-.6-9.5-1.2-20.5-2-33.5-.3-5.2-.7-13.1-1-17.5-.3-4.4-.7-12.7-1-18.5-.3-5.8-.8-14.1-1.1-18.5-.4-7.4-.8-13.9-1.9-33.9-.2-4.3-.5-8-.7-8.1-.2-.2-4.3.9-9.3 2.5-24.9 7.8-45.8 14.5-53 16.8-4.4 1.4-8.4 2.7-9 2.8-.5.1-9.1 2.8-19 5.9-9.9 3.2-19.8 6.3-22 7-2.2.6-4.7 1.4-5.5 1.7-.8.3-7.6 2.5-15 4.8s-18.4 5.7-24.5 7.7c-14.7 4.7-26 8.2-44 13.8-8.2 2.6-19.7 6.3-25.5 8.2-5.8 1.9-11.2 3.6-12 3.8-.8.2-9.6 2.9-19.5 6-15.4 4.9-30.5 9.7-86 27.2-4.4 1.4-9.3 2.9-11 3.3-4.3 1.2-44.7 14-46.5 14.7-.8.3-1.9.7-2.5.8-.5.1-5.3 1.6-10.5 3.3-10.7 3.5-65.5 20.8-79.8 25.3-5.1 1.6-9.7 3.1-10.1 3.3-.4.3-1.8.7-3.2 1-1.3.2-8.2 2.3-15.4 4.6-46.5 14.8-58 18.3-66.5 19.9-3 .6-6.8 1.3-8.5 1.7-6.1 1.2-36.2 1.1-45.7-.2-12-1.6-21.2-3.9-43.8-11-9.6-3.1-21.1-6.7-25.5-8.1-4.4-1.4-13.4-4.2-20-6.3-6.6-2.1-19.4-6.2-28.5-9-9.1-2.9-26.2-8.3-38-12-29.4-9.3-51.8-16.4-82.5-26-14.3-4.5-31.4-9.9-38-12-12.4-4-33.9-10.7-65-20.5-9.9-3.1-25-7.8-33.5-10.5-28.8-9.1-60.4-19.1-79.5-25.1-10.4-3.3-21.7-6.8-25-7.9-3.3-1-20.4-6.4-38-12-17.6-5.5-36-11.4-41-12.9-4.9-1.6-15.7-5-24-7.6-8.2-2.6-15.5-5-16.2-5.2-.8-.3-1.3.4-1.4 1.8z"/></svg>